<svg xmlns="http://www.w3.org/2000/svg" xmlns:xlink="http://www.w3.org/1999/xlink" width="500" zoomAndPan="magnify" viewBox="0 0 375 374.999991" height="500" preserveAspectRatio="xMidYMid meet" version="1.0"><defs><clipPath id="fba91e2982"><path d="M 12.242188 12.242188 L 362.585938 12.242188 L 362.585938 362.585938 L 12.242188 362.585938 Z M 12.242188 12.242188 " clip-rule="nonzero"/></clipPath><clipPath id="3740ca8023"><path d="M 192 96.007812 L 318.714844 96.007812 L 318.714844 231 L 192 231 Z M 192 96.007812 " clip-rule="nonzero"/></clipPath><clipPath id="9335374d86"><path d="M 56.285156 96.007812 L 183 96.007812 L 183 231 L 56.285156 231 Z M 56.285156 96.007812 " clip-rule="nonzero"/></clipPath><clipPath id="9e84f692d7"><path d="M 120 115 L 255 115 L 255 257.402344 L 120 257.402344 Z M 120 115 " clip-rule="nonzero"/></clipPath></defs><g clip-path="url(#fba91e2982)"><path fill="#38b6ff" d="M 187.414062 12.242188 C 90.667969 12.242188 12.242188 90.667969 12.242188 187.414062 C 12.242188 284.15625 90.667969 362.585938 187.414062 362.585938 C 284.15625 362.585938 362.585938 284.15625 362.585938 187.414062 C 362.585938 90.667969 284.15625 12.242188 187.414062 12.242188 " fill-opacity="1" fill-rule="nonzero"/></g><g clip-path="url(#3740ca8023)"><path fill="#144949" d="M 318.605469 212.921875 C 318.171875 201.152344 311.660156 190.472656 300.96875 182.589844 C 296.027344 178.949219 290.199219 175.910156 283.660156 173.640625 C 293.226562 165.59375 299.316406 153.511719 299.316406 140 C 299.316406 115.773438 279.753906 96.128906 255.625 96.128906 C 231.496094 96.128906 211.9375 115.773438 211.9375 140 C 211.9375 153.511719 218.027344 165.59375 227.59375 173.640625 C 221.050781 175.910156 215.230469 178.949219 210.292969 182.589844 C 199.597656 190.46875 193.097656 201.152344 192.644531 212.921875 C 192.488281 217.050781 192.941406 220.527344 193.898438 223.492188 C 210.242188 227.546875 231.882812 230.015625 255.625 230.015625 C 279.429688 230.015625 301.117188 227.535156 317.476562 223.464844 C 318.351562 220.503906 318.757812 217.03125 318.605469 212.921875 " fill-opacity="1" fill-rule="nonzero"/></g><g clip-path="url(#9335374d86)"><path fill="#144949" d="M 182.433594 212.921875 C 181.996094 201.152344 175.488281 190.472656 164.789062 182.589844 C 159.851562 178.949219 154.023438 175.910156 147.484375 173.640625 C 157.050781 165.59375 163.140625 153.511719 163.140625 140 C 163.140625 115.773438 143.578125 96.128906 119.453125 96.128906 C 95.320312 96.128906 75.761719 115.773438 75.761719 140 C 75.761719 153.511719 81.851562 165.59375 91.417969 173.640625 C 84.878906 175.910156 79.054688 178.949219 74.117188 182.589844 C 63.425781 190.46875 56.917969 201.152344 56.472656 212.921875 C 56.3125 217.050781 56.765625 220.527344 57.726562 223.492188 C 74.066406 227.546875 95.710938 230.015625 119.453125 230.015625 C 143.253906 230.015625 164.941406 227.535156 181.300781 223.464844 C 182.175781 220.503906 182.585938 217.03125 182.433594 212.921875 " fill-opacity="1" fill-rule="nonzero"/></g><g clip-path="url(#9e84f692d7)"><path fill="#0369a4" d="M 254.492188 239.191406 C 254.027344 226.683594 247.109375 215.320312 235.738281 206.945312 C 230.488281 203.078125 224.292969 199.847656 217.339844 197.429688 C 227.511719 188.878906 233.980469 176.039062 233.980469 161.671875 C 233.980469 135.917969 213.1875 115.039062 187.539062 115.039062 C 161.886719 115.039062 141.09375 135.917969 141.09375 161.671875 C 141.09375 176.039062 147.570312 188.878906 157.738281 197.433594 C 150.785156 199.847656 144.59375 203.078125 139.347656 206.945312 C 127.980469 215.320312 121.066406 226.683594 120.585938 239.191406 C 120.421875 243.582031 120.902344 247.28125 121.921875 250.425781 C 139.296875 254.738281 162.300781 257.359375 187.539062 257.359375 C 212.839844 257.359375 235.898438 254.722656 253.285156 250.394531 C 254.21875 247.246094 254.652344 243.558594 254.492188 239.191406 " fill-opacity="1" fill-rule="nonzero"/></g></svg>